<?xml version="1.0" encoding="utf-8"?>
<!-- Generator: Adobe Illustrator 22.1.0, SVG Export Plug-In . SVG Version: 6.00 Build 0)  -->
<svg version="1.1" xmlns="http://www.w3.org/2000/svg" xmlns:xlink="http://www.w3.org/1999/xlink" x="0px" y="0px"
	 viewBox="0 0 300 92" style="enable-background:new 0 0 300 92;" xml:space="preserve">
<style type="text/css">
	.st0{display:none;}
	.st1{display:inline;}
	.st2{fill:#E31C1D;}
	.st3{fill:#E31C1D;stroke:#E31C1D;stroke-width:56;stroke-miterlimit:10;}
</style>
<g id="Capa_1" class="st0">
	<title>bacon</title>
	<desc>Created with Sketch.</desc>
	<g id="Page-1" class="st1">
		<g id="bacon">
			<g id="Group">
				<path id="path4147-path-copy-2" class="st2" d="M225.4,97.7c-5.4,0.1-11.1,2.7-18.8,8c-15.6,10.6-22.3,10.6-38.2,0
					c-15.3-10.2-21.3-10.3-35.3-0.6c-8.8,6.1-12.5,7.4-20.7,7.5c-8.5,0.1-11.4-1-19.8-7.4c-13.3-10.2-20.4-10.1-36,0.5
					c-15.6,10.6-22.3,10.6-38.2,0c-10.1-6.7-16.1-9-23-7.1v45.6c7.5-1.8,14.2,0.4,23.3,6.6c15.6,10.8,21.3,10.9,36,1.1
					c16.5-11,25.2-11.2,39.5-0.7c13.9,10.1,22.3,10.1,37.2,0c14.7-10,23.2-10.1,37.3-0.4c15.6,10.8,21.3,10.9,36,1.1
					c16.5-11,25.2-11.2,39.5-0.7c13.9,10.1,22.3,10.1,37.2,0c5.3-3.6,9.8-5.9,14-6.9V98.6c-3.6,1-7.5,3.2-12.3,6.5
					c-8.8,6.1-12.5,7.4-20.7,7.5c-8.5,0.1-11.4-1-19.8-7.4C235.9,100.1,230.8,97.6,225.4,97.7L225.4,97.7z"/>
				<path id="path4147-path-copy" class="st2" d="M225.4,117.7c-5.4,0.1-11.1,2.7-18.8,8c-15.6,10.6-22.3,10.6-38.2,0
					c-15.3-10.2-21.3-10.3-35.3-0.6c-8.8,6.1-12.5,7.4-20.7,7.5c-8.5,0.1-11.4-1-19.8-7.4c-13.3-10.2-20.4-10.1-36,0.5
					c-15.6,10.6-22.3,10.6-38.2,0c-10.1-6.7-16.1-9-23-7.1v45.6c7.5-1.8,14.2,0.4,23.3,6.6c15.6,10.8,21.3,10.9,36,1.1
					c16.5-11,25.2-11.2,39.5-0.7c13.9,10.1,22.3,10.1,37.2,0c14.7-10,23.2-10.1,37.3-0.4c15.6,10.8,21.3,10.9,36,1.1
					c16.5-11,25.2-11.2,39.5-0.7c13.9,10.1,22.3,10.1,37.2,0c5.3-3.6,9.8-5.9,14-6.9v-45.6c-3.6,1-7.5,3.2-12.3,6.5
					c-8.8,6.1-12.5,7.4-20.7,7.5c-8.5,0.1-11.4-1-19.8-7.4C235.9,120.1,230.8,117.6,225.4,117.7L225.4,117.7z"/>
				<path id="path4147-path" class="st2" d="M206.6,145.7c-15.6,10.6-22.3,10.6-38.2,0c-15.3-10.2-21.3-10.3-35.3-0.6
					c-8.8,6.1-12.5,7.4-20.7,7.5c-8.5,0.1-11.4-1-19.8-7.4c-13.3-10.2-20.4-10.1-36,0.5c-15.6,10.6-22.3,10.6-38.2,0
					c-10.1-6.7-16.1-9-23-7.1v35.6c7.5-1.8,14.2,0.4,23.3,6.6c15.6,10.8,21.3,10.9,36,1.1c16.5-11,25.2-11.2,39.5-0.7
					c13.9,10.1,22.3,10.1,37.2,0c14.7-10,23.2-10.1,37.3-0.4c15.6,10.8,21.3,10.9,36,1.1c16.5-11,25.2-11.2,39.5-0.7
					c13.9,10.1,22.3,10.1,37.2,0c5.3-3.6,9.8-5.9,14-6.9v-35.6c-3.6,1-7.5,3.2-12.3,6.5c-8.8,6.1-12.5,7.4-20.7,7.5
					c-8.5,0.1-11.4-1-19.8-7.4c-6.6-5.1-11.7-7.6-17.1-7.5C220,137.7,214.3,140.4,206.6,145.7z"/>
			</g>
		</g>
	</g>
</g>
<g id="Capa_2">
	<rect x="28.3" y="35.8" class="st3" width="243.4" height="20.4"/>
</g>
</svg>
